# xmcd
#
# Track frame offsets: 
#        150
#        22119
#        44550
#        72240
#        87564
#        103704
#
# Disc length: 1638 seconds
#
# Revision: 0
# Processed by: cddbd v1.5.2PL0 Copyright (c) Steve Scherf et al.
# Submitted via: ExactAudioCopy v0.99pb5
#
DISCID=52066406
DTITLE=Maddis´son Brass Band - Home Recordings
DYEAR=2010
DGENRE=Blues
TTITLE0=Arabica
TTITLE1=Dumpster Bump
TTITLE2=Human Nature
TTITLE3=Haina Ska
TTITLE4=Fonky Car
TTITLE5=Sandy Days
EXTD=
EXTT0=
EXTT1=
EXTT2=
EXTT3=
EXTT4=
EXTT5=
PLAYORDER=
